/* XPM */
static char *_594930104874[] = {
/* columns rows colors chars-per-pixel */
"128 128 54 1 ",
"  c #2F3B3C",
". c #2F3F3F",
"X c #53472C",
"o c #604C33",
"O c #6D5536",
"+ c #7B5C3C",
"@ c #3D3D43",
"# c #323E49",
"$ c #4B3747",
"% c #563D4D",
"& c #2D4848",
"* c #344557",
"= c #285353",
"- c #275B5B",
"; c #334D66",
": c #2D527A",
"> c #2E6767",
", c #367070",
"< c #4E4E4E",
"1 c #444450",
"2 c #4B4B55",
"3 c gray34",
"4 c #654455",
"5 c #6D4858",
"6 c #7E5159",
"7 c #555560",
"8 c #5E5E6D",
"9 c gray39",
"0 c gray43",
"q c #676774",
"w c #777777",
"e c #866741",
"r c #976E45",
"t c #A0764A",
"y c #AD7F4E",
"u c #B3734F",
"i c #B36B53",
"p c #B47150",
"a c #8F5E61",
"s c #9B696A",
"d c #AF7A7A",
"f c #B78C58",
"g c #C18564",
"h c #C49A69",
"j c #CF9876",
"k c #315A8E",
"l c #848484",
"z c #878795",
"x c #939393",
"c c #BC8A8A",
"v c #CC9D9D",
"b c #D5AE80",
"n c #E3B490",
"m c #E5C196",
/* pixels */
"hhffyjjfffffffffjjjjjhhhytyyffffhhfgijjfffffffffjjjjjhhhyttyffffhhffyjjfffffffffjjjjjhhhytyyffffhhfgijjfffffffffjjjjjhhhyttyffff",
"ffhffhhffhfyyfffjjjhhhfhyytyfhyfffhffhhffhfyyfffjjjhhhfhyytyfhyfffhffhhffhfyyfffjjjhhhfhyytyfhyfffhffhhffhfyyfffjjjhhhfhyytyfhyf",
"ffhufhhfhhfyfttfjhjhftffttttfhtfffhufhhfhhfyfttfjhjhftffttttfhtfffhufhhfhhfyfttfjhjhftffttttfhtfffhufhhfhhfyfttfjhjhftffttttfhtf",
"hfjhjjnjnjfjjhhhjngjffhhhffffjhjjfjhjjnjnjfjjhhhjngjffhhhffffjhjhfjhjjnjnjfjjhhhjngjffhhhffffjhjjfjhjjnjnjfjjhhhjngjffhhhffffjhj",
"bfjjhjbbbjfjjhhhjbfhtfjhhhjhjjjjbfjjhjbbbjfjjhhhjbfhtfjhhhjhjjjjbfjjhjbbbjfjjhhhjbfhtfjhhhjhjjjjbfjjhjbbbjfjjhhhjbfhtfjhhhjhjjjj",
"bfhhjjjbjjfjjhhhhhfhfthhhjhhhjhfbfhhjjjbjjfjjhhhhhfhfthhhjjjhjhfbfhhjjjbjjfjjhhhhhfhfthhhjhhhjhfbfhhjjjbjjfjjhhhhhfhfthhhjjjhjhf",
"hffhhjjjjjfjjfhffhhhyeffffhffhhfhyfhhhjjjjfjjfhffhhhyeffhhjhhjhfhffhhjjjjjfjjfhffhhhyeffffhffhhfhyfhhhjjjjfjjfhffhhhyeffhhjhhjhf",
"fyfffhhjhhfhjffyfffhteyfyytrrdarrrtyyfhjhhfhjffyfffhteyffffffhfffyfffhhjhhfhjffyfffhteyfyytrrdarrrtyyfhjhhfhjffyfffhteyffffffhff",
"fyffffhhhhhhfhftfffhftyftr+<<<<2<<436tfhhhhhfhftfffhftyffttyffyffyffffhhhhhhfhftfffhftyftr+<<<<2<<436tfhhhhhfhftfffhftyffttyffyf",
"hhjhfhjjjjnbjjhyfjjnbhhjfy42*===**;25djjjjnbjjhyfjjnbhhjfffhjjjjhhjhfhjjjjnbjjhyfjjnbhhjfy42*===**;25djjjjnbjjhyfjjnbhhjfffhjjjj",
"jhhhyfhjjjbmjjhthbmmmmbnjs3*=====**13sghjjbmjjhthbmmmmbnjhtjjjjjjhhhyfhjjjbmjjhthbmmmmbnjs3*=====**13sghjjbmjjhthbmmmmbnjhtjjjjj",
"jhhhyfhhhhjbjhhtjnnmnnmjcd<*=====##1<sdgghjjjhhtjnnmnnmbhhyjjjjjjhhhyfhhhhjbjhhtjnnmnnmjcd<*=====##1<sdgghjjjhhtjnnmnnmbhhyjjjjj",
"hhfftjjhffhhffftjjjnjccsas@&&&&&&##@<ldsyyfhffftjjjmbjjhfhthjjhhhhfftjjhffhhffftjjjnjccsas@&&&&&&##@<ldsyyfhffftjjjmbjjhfhthjjhh",
"yftffhhhffffyyffhfffsa09<<@&&&=&....13993+etyyffhfhhhffyfftyhhhhyftffhhhffffyyffhfffsa09<<@&&&=&....13993+etyyffhfhhhffyfftyhhhh",
"yffjjbjjhhfhjjjjhjjjc972;*=&&===.&#**;27225gjjjjhjjjhtjhjhhhhjjjyffjjbjjhhfhjjjjhjjjc972;*=&&===.&#**;27225gjjjjhjjjhtjhjhhhhjjj",
"tfhjjbjjjhtjhjjjjjjjd92**======&..&====*;23dhjjjjjjjjthhjjjjjjjhtfhjjbjjjhtjhjjjjjjjd92**======&..&====*;23dhjjjjjjjjthhjjjjjjjh",
"yfghjjjjjhfjhjjhhhhfd31*&&====&&..&=====*13shjjjhhhhhthhjjjjjjhfyfghjjjjjhfjhjjhhhhfd31*&&====&&..&=====*13shjjjhhhhhthhjjjjjjhf",
"yffhhhhhhhyjhhhhffhfd<**&&&&==&&..&&&&&&&*<dcghfffhfhfhjhhjjjhhfyffhhhhhhhyjhhhhffhfd<**&&&&==&&..&&&&&&&*<dcghfffhfhfhjhhjjjhhf",
"fffhffffffyfjfhfytte6@1&&&&&&&&&..&&&&&&&#10dsyyyyffhgjhhhhjhhhhfffhffffffyfjfhfytte6@1&&&&&&&&&..&&&&&&&#10dsyyyyffhgjhhhhjhhhh",
"hhfffffffttffyte+<<<2*&&&&.&=&&&&.&&&&&&&.@14<5+tyyfhhhhhftjjhhhhhfffffffttffyte+<<<2*&&&&.&=&&&&.&&&&&&&.@14<5+tyyfhhhhhftjjhhh",
"jjjfffjjhffffftO31========.======&=&.&===&###1<5dgjjjjjjjhyjjnjjjjjfffjjhffffftO31========.======&=&.&===&###1<5dgjjjjjjjhyjjnjj",
"jjbhyjjhhhffhyr<2*======&&.&======&&.&====&.*119djjjjhjjhfthjnjjjjbhyjjhhhffhyr<2*======&&.&======&&.&====&.*119djjjjhjjhfthjnjj",
"hjbfyhhhhhjhfye@;====&&&&..&===&&&&#.&==&&=&*#@3ccjjhhhhhfyhjjjhhjbfyhhhhhjhfye@;====&&&&..&===&&&&#.&==&&=&*#@3ccjjhhhhhfyhjjjh",
"fhhfthhhyfftre+@;=*&&&&&&..&&=&&..&..=&&&&&&..@<lcccfyyhffyhhjhffhhfthhhyfftre+@;=*&&&&&&..&&=&&..&..=&&&&&&..@<lcccfyyhffyhhjhf",
"fhhhfhhfta652<1*=&&&..&&&&&&=&&&.#&&&&&&&&.##.&1290366tfyffhhytffhhhfhhfta652<1*=&&&..&&&&&&=&&&.#&&&&&&&&.##.&1290366tfyffhhytf",
"fjnnnjnjhd42*&*====&..========&=.*=======*#*&&=*=222<3djjjjjjjfhfjnnnjnjhd42*&*====&..========&=.*=======*#*&&=*=222<3djjjjjjjfh",
"fmmmbjjhha<1&======&#.&=========&=======&..*&&====*#14sjjjjjjhhjfmmmbjjhha<1&======&#.&=========&=======&..*&&====*#14sjjjjjjhhj",
"hnbjjhhhfr@#&&&&==&&. &==&&&&&&&&====&&&#...&&&&==&##<schhhhhhhfhnbjjhhhfr@#&&&&==&&. &==&&&&&&&&====&&&#...&&&&==&##<schhhhhhhf",
"fhjcdstrr+@#&=&&&&&&..#&&&&&&...&&=&&&&.....&=&.&&&..@6sstyfyyyyfhjcdstrr+@#&=&&&&&&..#&&&&&&...&&=&&&&.....&=&.&&&..@6sstyfyyyy",
"tfgd644<<@.&&&&.&&&&&.&&....&...&&&&......&&&&&.&&&&&@<24+rttttttfgd644<<@.&&&&.&&&&&.&&....&...&&&&......&&&&&.&&&&&@<24+rttttt",
"hfgc32@##===&==.=====&=&...*==##=&&=#....===&==.=====&=11oefhhffhfgc32@##===&==.=====&=&...*==##=&&=#....===&==.=====&=11oefhhff",
"hhfd321##&&&&&&.=======&...#&&&&&&&&.####&&&&&&.=======&@1eyffffhhfd321##&&&&&&.=======&...#&&&&&&&&.####&&&&&&.=======&@1eyffff",
"hhft3*1##&&&&#.&======&& . .&&&&&&&..#*##&&&&#.&=======&@1eyffffhhft3*1##&&&&#.&======&& . .&&&&&&&..#*##&&&&#.&=======&@1eyffff",
"ffft612221#&&..&&&*&&&&&.....&&&&&&..#&.#&&&&..&&&*&&&11$oeyfhyfffft612221#&&..&&&*&&&&&.....&&&&&&..#&.#&&&&..&&&*&&&11$oeyfhyf",
"fffta600931&&..&&&=&&&&&.....&&&&.&&&&&&&&.&&..&&&=&.@346+etyhtffffta600931&&..&&&=&&&&&.....&&&&.&&&&&&&&.&&..&&&=&.@346+etyhtf",
"hfhhcccczz<;=*=&==&=&&=&=#.#.====.========.==*=&==&=1<wsdfyffjhjhfhhcccczz<;=*=&==&=&&=&=#.#.====.========.==*=&==&=1<wsdfyffjhj",
"bfjjhjjjcd32==&&==.&.&====*&=====&========&===&&==.*@3ddghjhjjjjbfjjhjjjcd32==&&==.&.&====*&=====&========&===&&==.*@3ddghjhjjjj",
"bfhhjjjjjc92*&&&=&.*#.=&&===&===&&&====-==&&=&&&=&.*1%dghjjjhjhfbfhhjjjjjc92*&&&=&.*#.=&&===&===&&&====-==&&=&&&=&.*1%dghjjjhjhf",
"hyfhhjjjhc971#&&&&&*..&&&&=&#*&&=.&&&=====&=&&&&&&#1@%yffhjffjhfhyfhhjjjhc971#&&&&&*..&&&&=&#*&&=.&&&=====&=&&&&&&#1@%yffhjffjhf",
"ytyyffhjgs9<2@1..&.#..#&&#&.#&&&&.&&&&&*&&&&&...12@2$4yfffytyfyyytyyffhjgs9<2@1..&.#..#&&#&.#&&&&.&&&&&*&&&&&...12@2$4yfffytyfyy",
"eeeryfhhgss0994@.&&&#..&&&&&&&&&&.&&&&&&=&&&&&.@<99066tffteeeeaaeeeryfhhgss0994@.&&&#..&&&&&&&&&&.&&&&&&=&&&&&.@<99066tffteeeeaa",
"<<7+rhjjjjvccds<1====&&=&=&=====&&==&&========*@0cdccghjffr+7777<<7+rhjjjjvccds<1====&&=&=&=====&&==&&========*@0cdccghjffr+7777",
"**2<efhjjjjjjcd31->-=====&.======&&&.&&====>==*3scmmmmbnhf+72=;***2<efhjjjjjjcd31->-=====&.======&&&.&&====>==*3scmmmmbnhf+72=;*",
"=#12efhhhhjjjhd37,>>===&&*.&=====&&&.&&&=====*19vnnmnnmjhf62*====#12efhhhhjjjhd37,>>===&&*.&=====&&&.&&&=====*19vnnmnnmjhf62*===",
"&##<6dcffyhhffs398>,;=&&&&.&&&&&&#&..==&&&&**229vjjnjhhfss<1&&&&&##<6dcffyhhffs398>,;=&&&&.&&&&&&#&..==&&&&**229vjjnjhhfss<1&&&&",
"...@9w06aetfyysa009981&&&&&&&&=&..&.&=&&&&@3990adfhfitsa69<.&&=&...@9w06aetfyysa009981&&&&&&&&=&..&.&=&&&&@3990adfhfitsa69<.&&=&",
".&#;2777<5thjjjccccdz22&=&=&&===.&&*====&1<wddcchjjjha93722#&===.&#;2777<5thjjjccccdz22&=&=&&===.&&*====&1<wddcchjjjha93722#&===",
"..&==***2<ahhjjjjjjcd32=&======&..&======13ddjjjjjjjc9<2***====&..&==***2<ahhjjjjjjcd32=&======&..&======13ddjjjjjjjc9<2***====&",
"..&=====*70dhjjjjjhgd32=&&====&&..&=====*23scjjjhhhhc33**&&===&&..&=====*70dhjjjjjhgd32=&&====&&..&=====*23scjjjhhhhc33**&&===&&",
"..&&&&&&*70vjhhhhhhfd32;&&&&==&&..&&&==**23cchhhhhhfds3;*&&&==&&..&&&&&&*70vjhhhhhhfd32;&&&&==&&..&&&==**23cchhhhhhfds3;*&&&==&&",
"..&&&&&&.29scyhfffffs37221#&&&&&..&&#**1@<3sjfhfyyfyt671&&&&&&&&..&&&&&&.29scyhfffffs37221#&&&&&..&&#**1@<3sjfhfyyfyt671&&&&&&&&",
"&.&&&&&&&@76arttyfyffa0093@&=&&&&.&.@3<936+tfffteeeer02&&&.&=&&&&.&&&&&&&@76arttyfyffa0093@&=&&&&.&.@3<936+tfffteeeer02&&&.&=&&&",
"&&=&.&===#1<<4+thfjjjcccdw<*=====&=1<0dddyyfffyr+<7777;===.=====&&=&.&===#1<<4+thfjjjcccdw<*=====&=1<0dddyyfffyr+<7777;===.=====",
"==&&.&===&&.@24sjhjjjhjhha<*======*13dchgfffhfye71*-=*==&&.&======&&.&===&&.@24sjhjjjhjhha<*======*13dchgfffhfye71*-=*==&&.&====",
"&&&#.&==&&=&*@<ajjjjhhhfha41**==*&*13dhhhhhhhyte7**==&&&&..&===&&&&#.&==&&=&*@<ajjjjhhhfha41**==*&*13dhhhhhhhyte7**==&&&&..&===&",
"..&..=&&&&&&.@20dchhfhfhft322*2@@12$5fhhyhhfttt67**&&&&&&..&&=&&..&..=&&&&&&.@20dchhfhfhft322*2@@12$5fhhyhhfttt67**&&&&&&..&&=&&",
".#&&&&&&&&.##@@00aseetffyta0099<<906ahhfttsare692&&&..&&&&&&=&&&.#&&&&&&&&.##@@00aseetffyta0099<<906ahhfttsare692&&&..&&&&&&=&&&",
".*=======*#*#&277<7<+rhjjjcccdsdscvvjjjjhd67<<72===&..========&=.*=======*#*#&277<7<+rhjjjcccdsdscvvjjjjhd67<<72===&..========&=",
".=======&..*&&&**;*1<efjjjjjhhhjfnnnjjjhha<*****===&#.&=========.=======&..*&&&**;*1<efjjjjjhhhjfnnnjjjhha<*****===&#.&=========",
"&====&&&#...&&&&==&*<+yjhhhhhhhfhnjjhhhhfr@1&&&&==&&. &==&&&&&&&&====&&&#...&&&&==&*<+yjhhhhhhhfhnjjhhhhfr@1&&&&==&&. &==&&&&&&&",
"&&=&&&&.....&=&.&&&#@Otffyyfyyyyfhjhytytte@#&=&.&&&&..#&&&&&&...&&=&&&&.....&=&.&&&#@Otffyyfyyyyfhjhytytte@#&=&.&&&&..#&&&&&&...",
"&&&&......&&&&&.&&&&@<5a6erttttttfgdaee++<@&&&&.&&&&&.&&....&...&&&&......&&&&&.&&&&@<5a6erttttttfgdaee++<@&&&&.&&&&&.&&....&...",
"=&&=#....===&==.====;*222oefhhffhfgc6<<<<1*=&==.=====&=&...*==##=&&=#....===&==.====;*222oefhhffhfgc6<<<<1*=&==.=====&=&...*==##",
"&&&&.####&&&&&&.=====**2@1eyffffhhfd32111##&&&&.=======&...#&&&&&&&&.####&&&&&&.=====**2@1eyffffhhfd32111##&&&&.=======&...#&&&&",
"&&&..#*##&&&&#.&=====**2@Xeyffffhhft4*2@######.&======&& . .&&&&&&&..#*##&&&&#.&=====**2@Xeyffffhhft4*2@######.&======&& . .&&&&",
"&&&..#&.#&&&&..&&&*&*2<2@oeyfhyfffht644<<221...&&&*&&&&&.....&&&&&&..#&.#&&&&..&&&*&*2<2@oeyfhyfffht644<<221...&&&*&&&&&.....&&&",
"&.&&&&&&&&.&&..&&&=.@3reeeetyhtfffhttsssa091...&&&=&&&&&.....&&&&.&&&&&&&&.&&..&&&=.@3reeeetyhtfffhttsssa091...&&&=&&&&&.....&&&",
"=.========.==*=&==&*<rffhfyffjhjjfjhjjjjvv07**=&==&=&&=&=#.#.====.========.==*=&==&*<rffhfyffjhjjfjhjjjjvv07**=&==&=&&=&=#.#.===",
"=&========&===&&==&#<thhhhjhjjjjbfjjhjjbjcw7*=&&==.&.&====*&=====&========&===&&==&#<thhhhjhjjjjbfjjhjjbjcw7*=&&==.&.&====*&====",
"&&&====-==&&=&&&=*@*<efhhjhhfjhfbfhhjjjbjc021&&&=&.*#.=&&===&===&&&====-==&&=&&&=*@*<efhhjhhfjhfbfhhjjjbjc021&&&=&.*#.=&&===&===",
"=.&&&=====&=&&&#&#121+yfffhffhhfhyfhhhjjhc6721&#&&&*..&&&&=&#*&&=.&&&=====&=&&&#&#121+yfffhffhhfhyfhhhjjhc6721&#&&&*..&&&&=&#*&&",
"#.&&&&&*&&&&&.#@24454+yfyyyrryrrtrtyyfhjgda35<<@##.#..#&&#&.#&&&#.&&&&&*&&&&&.#@24454+yfyyyrryrrtrtyyfhjgda35<<@##.#..#&&#&.#&&&",
"&.&&&&&&=&&&&.@<6sssstyftt+4<3<<<<33aafhhfddsa63@.&&#..&&&&&&&&&&.&&&&&&=&&&&.@<6sssstyftt+4<3<<<<33aafhhfddsa63@.&&#..&&&&&&&&&",
"&&==&&=======;29sjjjjhhjfy72;::;;;777djjjjjjjjd6<;===&&=&=&=====&&==&&=======;29sjjjjhhjfy72;::;;;777djjjjjjjjd6<;===&&=&=&=====",
"=&&&.&&====>=*26sbmmmmbnjs3;;;;;;;;23sghjjjmjjh6<;,--====&.======&&&.&&====>=*26sbmmmmbnjs3;;;;;;;;23sghjjjmjjh6<;,--====&.=====",
"=&&&.&&&=====236vnnmnnmjcd2;;;;;;;*23sdgghjjjhf677>>-->=&*.&=====&&&.&&&=====236vnnmnnmjcd2;;;;;;;*23sdgghjjjhf677>>-->=&*.&====",
"&#&..==&&&&*2<3ajjjnjccsaw@;***;*;#1<ldssyfhfffe9988>-=&&&.&&&&&&#&..==&&&&*2<3ajjjnjccsaw@;***;*;#1<ldssyfhfffe9988>-=&&&.&&&&&",
"..&.&=&&&.@99asyhfffsa0922@*****#..@188796atyyfyta00q2@&&&&&&&=&..&.&=&&&.@99asyhfffsa0922@*****#..@188796atyyfyta00q2@&&&&&&&=&",
".&&*====&1<sdcjjhjjjc982;;;*;::;.&#*;:;:;29djjjjhcccc37&=&=&&===.&&*====&1<sdcjjhjjjc982;;;*;::;.&#*;:;:;29djjjjhcccc37&=&=&&===",
"..&======13dhjjjjjjjc92**;;;;;;;#.*;;;:;;;3dhjjjjjjcc92*&======&..&======13dhjjjjjjjc92**;;;;;;;#.*;;;:;;;3dhjjjjjjcc92*&======&",
"..&=====*23shjjhhhhhd72***;;;;;*.#*;;;:;;23shjjjhhhhc32*&&&===&&..&=====*23shjjhhhhhd72***;;;;;*.#*;;;:;;23shjjjhhhhc32*&&&===&&",
"..&&&***123cchhhffhdd7*****;;;**.#*;;;;;;2<dcghfffhffs3***&&==&&..&&&***123cchhhffhdd7*****;;;**.#*;;;;;;2<dcghfffhffs3***&&==&&",
"..&#1<<<<<5sjfhfytta9<;;****;**;.##;***..@<0dsdfyyfffa932<11&&&&..&#1<<<<<5sjfhfytta9<;;****;**;.##;***..@<0dsdfyyfffa932<11&&&&",
"&.&@3eeeeeeyfyte33<22;;;**.*;&#*&.&&..*...@2236atyyfffsaa641*&&&&.&@3eeeeeeyfyte33<22;;;**.*;&#*&.&&..*...@2236atyyfffsaa641*&&&",
"&&*<6yhhhfyffft<7;;;:;:::;.======&=&##;;;***2223dgjjjjjjhfe2*===&&*<6yhhhfyffft<7;;;:;:::;.======&=&##;;;***2223dgjjjjjjhfe2*===",
"=**3ahjhhhffhyr<;;;;;;;;;*.&======&&.*;;;;**;*29djjjjhjhhye2*====**3ahjhhhffhyr<;;;;;;;;;*.&======&&.*;;;;**;*29djjjjhjhhye2*===",
"**24afhhhhjhfye<:;;;;;;;;..&===&&&&&.*;;;;;;**@3ccjjhhhhhye72*****24afhhhhjhfye<:;;;;;;;;..&===&&&&&.*;;;;;;**@3ccjjhhhhhye72***",
"<496ahhhyfftre91;;;;*;#;##.&&=&&..&..**;#;;*.#@<zcccfyyhffe39722<496ahhhyfftre91;;;;*;#;##.&&=&&..&..**;#;;*.#@<zcccfyyhffe39722",
"asssghhftaa6<<2;;***..&&&&&&=&&&.#&&&=#&&..##.*289066atfyfysw05aasssghhftaa6<<2;;***..&&&&&&=&&&.#&&&=#&&..##.*289066atfyfysw05a",
"fjjjjjnjhg521*;;:*;*#.========&=.*=======*###*;;:22224djjjjjccsgfjjjjjnjhg521*;;:*;*#.========&=.*=======*###*;;:22224djjjjjccsg",
"fnmnjjjhht<1*;;;;;*;#.&=========&=======&..#*;;;;;*;2%sjjjjjjhhjfnmnjjjhht<1*;;;;;*;#.&=========&=======&..#*;;;;;*;2%sjjjjjjhhj",
"hnbjjhhhyr@1*;;;;**;# &==&&&&&&&&====&&&#..#**;;;**;1<schhhhhhhfhnbjjhhhyr@1*;;;;**;# &==&&&&&&&&====&&&#..#**;;;**;1<schhhhhhhf",
"fhjcdssrr9@**;**;*##..#&&&&&&...&&=&&&&....##;**;***@@assttfyyyyfhjcdssrr9@**;**;*##..#&&&&&&...&&=&&&&....##;**;***@@assttfyyyy",
"tfgd634<<1@****#&&&&&.&&....&...&&&&......&&.&.#;***.@2444+ttttttfgd634<<1@****#&&&&&.&&....&...&&&&......&&.&.#;***.@2444+ttttt",
"hfgc72211;;;*;*.=====&=&...*==##=&&=#....===&=*#;;;;;*;11<otffffhfgc72211;;;*;*.=====&=&...*==##=&&=#....===&=*#;;;;;*;11<otffff",
"hhfd3211******..=======&...#&&&&&&&&.####&&&&#.#:;;;;;;;@@otffffhhfd3211******..=======&...#&&&&&&&&.####&&&&#.#:;;;;;;;@@otffff",
"hhfs<211*****##&======&& . .&&&&&&&..#*##&&###.*;;;;;;;;@@orffffhhfs<211*****##&======&& . .&&&&&&&..#*##&&###.*;;;;;;;;@@orffff",
"ffft422222***##.&===&&&&.....&&&&&&..#&.#&###...;;;;;;;*$<oryhyfffft422222***##.&===&&&&.....&&&&&&..#&.#&###...;;;;;;;*$<oryhyf",
"fffta6000821*..*****&&&&.....&&&&.&&&&&&&&.....*;;;*112<44+tyhtffffta6000821*..*****&&&&.....&&&&.&&&&&&&&.....*;;;*112<44+tyhtf",
"hfhhcccccz77;***::*;#&=&=#.#.====.========&;;***::;;12lsdsyffjhjhfhhcccccz77;***::*;#&=&=#.#.====.========&;;***::;;12lsdsyffjhj",
"bfjjhjjjcd97;**;;:**.&====*&=====&========#;;**;;:**@7ddghjhjjjjbfjjhjjjcd97;**;;:**.&====*&=====&========#;;**;;:**@7ddghjhjjjj",
"bfhhjjjjjc92**;*;;*##.==&===&===&&&=======#;**;*;;**13dghjjjhjhfbfhhjjjjjc92**;*;;*##.==&===&===&&&=======#;**;*;;**13dghjjjhjhf",
"hyfhhjjjhc972*;**;;#..&&&&=&#*&&=.&&&&====#;**;**;;@@3dffhjffjhfhyfhhjjjhc972*;**;;#..&&&&=&#*&&=.&&&&====#;**;**;;@@3dffhjffjhf",
"ytyyffhjgs07211@#*.#..&.###&#&&&&.&&&&&*&*#**.#.2212$4yfffytyfyyytyyffhjgs07211@#*.#..&.###&#&&&&.&&&&&*&*#**.#.2212$4yfffytyfyy",
"eeeryfhhgss0094@..**#.&....&&&&&&.&&&.*******..@399066tffteeeeaaeeeryfhhgss0094@..**#.&....&&&&&&.&&&.*******..@399066tffteeeeaa",
"<<7+rhjjjjvccdl<*;;:;**;**&=====&&==##;;:::;;;1<wcdccfhjffr+7777<<7+rhjjjjvccdl<*;;:;**;**&=====&&==##;;:::;;;1<wcdccfhjffr+7777",
"**2<efhjjjjjjcd3*;k:;:;;;*.======&&&.**;;;:k:;23scmmmmbnhf+72=;***2<efhjjjjjjcd3*;k:;:;;;*.======&&&.**;;;:k:;23scmmmmbnhf+72=;*",
"=#12efhhhhjjjhd38::::::;;*.&=====&&&.**;;;;::;29vnnmnnmjhf62*====#12efhhhhjjjhd38::::::;;*.&=====&&&.**;;;;::;29vnnmnnmjhf62*===",
"&##<6dcffyhhffs3877:;;;***.#&&&&&&#..;;***;;;779vjjnjhhfss<1&&&&&##<6dcffyhhffs3877:;;;***.#&&&&&&#..;;***;;;779vjjnjhhfss<1&&&&",
"...@9w06aetfyysa009882****..***&.&..#;;***12990adfhfitsa69<.&&=&...@9w06aetfyysa009882****..***&.&..#;;***12990adfhfitsa69<.&&=&",
".&#;2777<5thjjjccccdz2;;;;;*;::;.##*;:;:**2lddcchjjjha93722#&===.&#;2777<5thjjjccccdz2;;;;;*;::;.##*;:;:**2lddcchjjjha93722#&===",
"..&==***2<ahhjjjjjjcx31*;;;;;;;;..*;;;:;;;3ddjjjjjjjc9<2***====&..&==***2<ahhjjjjjjcx31*;;;;;;;;..*;;;:;;;3ddjjjjjjjc9<2***====&",
"..&=====*70dhjjjjjhhd32***;;;;;*.#*;;;:;;23scjjjhhhhc33**&&===&&..&=====*70dhjjjjjhhd32***;;;;;*.#*;;;:;;23scjjjhhhhc33**&&===&&",
"..&&&&&&*70vjhhhhhhfd722***;;;**.#*;;;;;;23cchhhhhhfds3;*&&&==&&..&&&&&&*70vjhhhhhhfd722***;;;**.#*;;;;;;23cchhhhhhfds3;*&&&==&&",
"..&&&&&&.29scyhffffft67222**;;*;.#*;**22225sjfhfyyfyt671&&&&&&&&..&&&&&&.29scyhffffft67222**;;*;.#*;**22225sjfhfyyfyt671&&&&&&&&",
"&.&&&&&&&@76arttyfyffs6093@*;;;;*#**@39993+tfffteeeer02&&&.&=&&&&.&&&&&&&@76arttyfyffs6093@*;;;;*#**@39993+tfffteeeer02&&&.&=&&&",
"&&=&.&===#1<<4+thfjjjjccdw2;::::;*;12wdddyyfffyr+<7777;===.=====&&=&.&===#1<<4+thfjjjjccdw2;::::;*;12wdddyyfffyr+<7777;===.=====",
"==&&.&===&&.@24sjhjjjhhhcs<;;;;;;;**3dchgfffhfye71*-=*==&&.&======&&.&===&&.@24sjhjjjhhhcs<;;;;;;;**3dchgfffhfye71*-=*==&&.&====",
"&&&#.&==&&=&*@<ajjjjhhhfhs<2;;;;;*123djhhhhhhyte7**==&&&&..&===&&&&#.&==&&=&*@<ajjjjhhhfhs<2;;;;;*123djhhhhhhyte7**==&&&&..&===&",
"..&..=&&&&&&.@20dchhfhfhft3222;1@12<5dhhyhhfttt67**&&&&&&..&&=&&..&..=&&&&&&.@20dchhfhfhft3222;1@12<5dhhyhhfttt67**&&&&&&..&&=&&",
".#&&&&&&&&.##@@00aseetffyfa6099<390aaghfttttre692&&&..&&&&&&=&&&.#&&&&&&&&.##@@00aseetffyfa6099<390aaghfttttre692&&&..&&&&&&=&&&",
".*=======*#*#&277<7<+rhjjjcccdsdscvvjjjjhfe+<<72===&..========&=.*=======*#*#&277<7<+rhjjjcccdsdscvvjjjjhfe+<<72===&..========&=",
".=======&..*#&***;*2<efjjjjjhhhjfnnnjjjhhte21****==&#.&=========.=======&..*#&***;*2<efjjjjjhhhjfnnnjjjhhte21****==&#.&=========",
"#*==*&&&&..##&*#**#2<+fjhhhhhhhfhnjjjhhhhye<1******&#.#==&&==&&&#*==*&&&&..##&*#**#2<+fjhhhhhhhfhnjjjhhhhye<1******&#.#==&&==&&&",
"1222@@*@@@@@12*@2223<efhffffyyyyfhjhfffyfteo<2*@22221@22*.&&@@@@1222@@*@@@@@12*@2223<efhffffyyyyfhjhfffyfteo<2*@22221@22*.&&@@@@",
"39993<<<344339939900atfhtttttttttfggttttttte639399000999<<<<<<<439993<<<344339939900atfhtttttttttfggttttttte639399000999<<<<<<<4",
"dsscssttdddddddaddccvjjhfyyfhhffhfgjfffffhhfyfdaddccvcddatetyydddsscssttdddddddaddccvjjhfyyfhhffhfgjfffffhhfyfdaddccvcddatetyydd",
"hhghpffffffyfyttjjjjjjjhyttfffffhhhhpffffffffyttjjjjjjjhttryfffghhghpffffffyfyttjjjjjjjhyttfffffhhhhpffffffffyttjjjjjjjhttryfffg"
};
